<svg id="visual" viewBox="0 0 900 600" width="900" height="600" xmlns="http://www.w3.org/2000/svg" xmlns:xlink="http://www.w3.org/1999/xlink" version="1.1"><rect x="0" y="0" width="900" height="600" fill="#333F44"></rect><path d="M0 467L13.7 472C27.3 477 54.7 487 82 487.5C109.3 488 136.7 479 163.8 481.5C191 484 218 498 245.2 500.7C272.3 503.3 299.7 494.7 327 489.8C354.3 485 381.7 484 409 479.2C436.3 474.3 463.7 465.7 491 463.5C518.3 461.3 545.7 465.7 573 465.8C600.3 466 627.7 462 654.8 465.8C682 469.7 709 481.3 736.2 484.8C763.3 488.3 790.7 483.7 818 478.8C845.3 474 872.7 469 886.3 466.5L900 464L900 601L886.3 601C872.7 601 845.3 601 818 601C790.7 601 763.3 601 736.2 601C709 601 682 601 654.8 601C627.7 601 600.3 601 573 601C545.7 601 518.3 601 491 601C463.7 601 436.3 601 409 601C381.7 601 354.3 601 327 601C299.7 601 272.3 601 245.2 601C218 601 191 601 163.8 601C136.7 601 109.3 601 82 601C54.7 601 27.3 601 13.7 601L0 601Z" fill="#333f44"></path><path d="M0 516L13.7 511.5C27.3 507 54.7 498 82 500C109.3 502 136.7 515 163.8 517.2C191 519.3 218 510.7 245.2 506.2C272.3 501.7 299.7 501.3 327 506C354.3 510.7 381.7 520.3 409 517.7C436.3 515 463.7 500 491 493.5C518.3 487 545.7 489 573 495.5C600.3 502 627.7 513 654.8 519C682 525 709 526 736.2 524.2C763.3 522.3 790.7 517.7 818 514.7C845.3 511.7 872.7 510.3 886.3 509.7L900 509L900 601L886.3 601C872.7 601 845.3 601 818 601C790.7 601 763.3 601 736.2 601C709 601 682 601 654.8 601C627.7 601 600.3 601 573 601C545.7 601 518.3 601 491 601C463.7 601 436.3 601 409 601C381.7 601 354.3 601 327 601C299.7 601 272.3 601 245.2 601C218 601 191 601 163.8 601C136.7 601 109.3 601 82 601C54.7 601 27.3 601 13.7 601L0 601Z" fill="#2c3137"></path><path d="M0 529L13.7 533C27.3 537 54.7 545 82 544.2C109.3 543.3 136.7 533.7 163.8 531.7C191 529.7 218 535.3 245.2 539.2C272.3 543 299.7 545 327 540.7C354.3 536.3 381.7 525.7 409 527.5C436.3 529.3 463.7 543.7 491 544.7C518.3 545.7 545.7 533.3 573 530C600.3 526.7 627.7 532.3 654.8 532.8C682 533.3 709 528.7 736.2 530.2C763.3 531.7 790.7 539.3 818 540C845.3 540.7 872.7 534.3 886.3 531.2L900 528L900 601L886.3 601C872.7 601 845.3 601 818 601C790.7 601 763.3 601 736.2 601C709 601 682 601 654.8 601C627.7 601 600.3 601 573 601C545.7 601 518.3 601 491 601C463.7 601 436.3 601 409 601C381.7 601 354.3 601 327 601C299.7 601 272.3 601 245.2 601C218 601 191 601 163.8 601C136.7 601 109.3 601 82 601C54.7 601 27.3 601 13.7 601L0 601Z" fill="#242529"></path><path d="M0 559L13.7 559.3C27.3 559.7 54.7 560.3 82 558.8C109.3 557.3 136.7 553.7 163.8 552C191 550.3 218 550.7 245.2 555.2C272.3 559.7 299.7 568.3 327 573.2C354.3 578 381.7 579 409 573.8C436.3 568.7 463.7 557.3 491 556.7C518.3 556 545.7 566 573 570.7C600.3 575.3 627.7 574.7 654.8 575.5C682 576.3 709 578.7 736.2 578C763.3 577.3 790.7 573.7 818 567.8C845.3 562 872.7 554 886.3 550L900 546L900 601L886.3 601C872.7 601 845.3 601 818 601C790.7 601 763.3 601 736.2 601C709 601 682 601 654.8 601C627.7 601 600.3 601 573 601C545.7 601 518.3 601 491 601C463.7 601 436.3 601 409 601C381.7 601 354.3 601 327 601C299.7 601 272.3 601 245.2 601C218 601 191 601 163.8 601C136.7 601 109.3 601 82 601C54.7 601 27.3 601 13.7 601L0 601Z" fill="#1a1a1b"></path></svg>