<svg id="visual" viewBox="0 0 900 600" width="900" height="600" xmlns="http://www.w3.org/2000/svg" xmlns:xlink="http://www.w3.org/1999/xlink" version="1.1"><rect x="0" y="0" width="900" height="600" fill="#1A1A1B"></rect><path d="M0 94L15 89.7C30 85.3 60 76.7 90 71.7C120 66.7 150 65.3 180 69.5C210 73.7 240 83.3 270 88C300 92.7 330 92.3 360 92.7C390 93 420 94 450 91.7C480 89.3 510 83.7 540 81.7C570 79.7 600 81.3 630 83.3C660 85.3 690 87.7 720 87.8C750 88 780 86 810 86.5C840 87 870 90 885 91.5L900 93L900 0L885 0C870 0 840 0 810 0C780 0 750 0 720 0C690 0 660 0 630 0C600 0 570 0 540 0C510 0 480 0 450 0C420 0 390 0 360 0C330 0 300 0 270 0C240 0 210 0 180 0C150 0 120 0 90 0C60 0 30 0 15 0L0 0Z" fill="#1a1a1b"></path><path d="M0 53L15 52.7C30 52.3 60 51.7 90 55.3C120 59 150 67 180 67C210 67 240 59 270 55.5C300 52 330 53 360 55.5C390 58 420 62 450 62.2C480 62.3 510 58.7 540 56.2C570 53.7 600 52.3 630 55.8C660 59.3 690 67.7 720 70.7C750 73.7 780 71.3 810 65.8C840 60.3 870 51.7 885 47.3L900 43L900 0L885 0C870 0 840 0 810 0C780 0 750 0 720 0C690 0 660 0 630 0C600 0 570 0 540 0C510 0 480 0 450 0C420 0 390 0 360 0C330 0 300 0 270 0C240 0 210 0 180 0C150 0 120 0 90 0C60 0 30 0 15 0L0 0Z" fill="#242529"></path><path d="M0 34L15 32.7C30 31.3 60 28.7 90 29.8C120 31 150 36 180 36.3C210 36.7 240 32.3 270 34.8C300 37.3 330 46.7 360 46.5C390 46.3 420 36.7 450 32.7C480 28.7 510 30.3 540 30.3C570 30.3 600 28.7 630 29.3C660 30 690 33 720 36C750 39 780 42 810 40.7C840 39.3 870 33.7 885 30.8L900 28L900 0L885 0C870 0 840 0 810 0C780 0 750 0 720 0C690 0 660 0 630 0C600 0 570 0 540 0C510 0 480 0 450 0C420 0 390 0 360 0C330 0 300 0 270 0C240 0 210 0 180 0C150 0 120 0 90 0C60 0 30 0 15 0L0 0Z" fill="#2c3137"></path><path d="M0 29L15 29.5C30 30 60 31 90 30C120 29 150 26 180 22.8C210 19.7 240 16.3 270 14.7C300 13 330 13 360 14.7C390 16.3 420 19.7 450 21.7C480 23.7 510 24.3 540 22.8C570 21.3 600 17.7 630 15.8C660 14 690 14 720 14.2C750 14.3 780 14.7 810 18C840 21.3 870 27.7 885 30.8L900 34L900 0L885 0C870 0 840 0 810 0C780 0 750 0 720 0C690 0 660 0 630 0C600 0 570 0 540 0C510 0 480 0 450 0C420 0 390 0 360 0C330 0 300 0 270 0C240 0 210 0 180 0C150 0 120 0 90 0C60 0 30 0 15 0L0 0Z" fill="#333f44"></path></svg>