<svg id="visual" viewBox="0 0 900 600" width="900" height="600" xmlns="http://www.w3.org/2000/svg" xmlns:xlink="http://www.w3.org/1999/xlink" version="1.1"><rect x="0" y="0" width="900" height="600" fill="#111"></rect><path d="M0 29L10 30C20 31 40 33 60 36.2C80 39.3 100 43.7 120 45.2C140 46.7 160 45.3 180 44.5C200 43.7 220 43.3 240 41.5C260 39.7 280 36.3 300 37.3C320 38.3 340 43.7 360 44.3C380 45 400 41 420 41C440 41 460 45 480 45.2C500 45.3 520 41.7 540 37.3C560 33 580 28 600 28.2C620 28.3 640 33.7 660 37.5C680 41.3 700 43.7 720 44.8C740 46 760 46 780 46.5C800 47 820 48 840 44.3C860 40.7 880 32.3 890 28.2L900 24L900 0L890 0C880 0 860 0 840 0C820 0 800 0 780 0C760 0 740 0 720 0C700 0 680 0 660 0C640 0 620 0 600 0C580 0 560 0 540 0C520 0 500 0 480 0C460 0 440 0 420 0C400 0 380 0 360 0C340 0 320 0 300 0C280 0 260 0 240 0C220 0 200 0 180 0C160 0 140 0 120 0C100 0 80 0 60 0C40 0 20 0 10 0L0 0Z" fill="#333f44"></path><path d="M0 25L10 24.3C20 23.7 40 22.3 60 23C80 23.7 100 26.3 120 28.3C140 30.3 160 31.7 180 30.8C200 30 220 27 240 27C260 27 280 30 300 29.7C320 29.3 340 25.7 360 24C380 22.3 400 22.7 420 23.7C440 24.7 460 26.3 480 26.5C500 26.7 520 25.3 540 23.2C560 21 580 18 600 17.2C620 16.3 640 17.7 660 18.3C680 19 700 19 720 21.8C740 24.7 760 30.3 780 30.8C800 31.3 820 26.7 840 24.3C860 22 880 22 890 22L900 22L900 0L890 0C880 0 860 0 840 0C820 0 800 0 780 0C760 0 740 0 720 0C700 0 680 0 660 0C640 0 620 0 600 0C580 0 560 0 540 0C520 0 500 0 480 0C460 0 440 0 420 0C400 0 380 0 360 0C340 0 320 0 300 0C280 0 260 0 240 0C220 0 200 0 180 0C160 0 140 0 120 0C100 0 80 0 60 0C40 0 20 0 10 0L0 0Z" fill="#282b30"></path><path d="M0 6L10 6.5C20 7 40 8 60 10.5C80 13 100 17 120 17.7C140 18.3 160 15.7 180 15.5C200 15.3 220 17.7 240 16.7C260 15.7 280 11.3 300 9.7C320 8 340 9 360 11.7C380 14.3 400 18.7 420 18.3C440 18 460 13 480 11.7C500 10.3 520 12.7 540 13.5C560 14.3 580 13.7 600 15C620 16.3 640 19.7 660 21.3C680 23 700 23 720 22.8C740 22.7 760 22.3 780 20.5C800 18.7 820 15.3 840 15.5C860 15.7 880 19.3 890 21.2L900 23L900 0L890 0C880 0 860 0 840 0C820 0 800 0 780 0C760 0 740 0 720 0C700 0 680 0 660 0C640 0 620 0 600 0C580 0 560 0 540 0C520 0 500 0 480 0C460 0 440 0 420 0C400 0 380 0 360 0C340 0 320 0 300 0C280 0 260 0 240 0C220 0 200 0 180 0C160 0 140 0 120 0C100 0 80 0 60 0C40 0 20 0 10 0L0 0Z" fill="#1a1a1b"></path></svg>