<svg id="visual" viewBox="0 0 900 600" width="900" height="600" xmlns="http://www.w3.org/2000/svg" xmlns:xlink="http://www.w3.org/1999/xlink" version="1.1"><path d="M0 28L21.5 31.7C43 35.3 86 42.7 128.8 39.8C171.7 37 214.3 24 257.2 22C300 20 343 29 385.8 35.2C428.7 41.3 471.3 44.7 514.2 39.7C557 34.7 600 21.3 642.8 17.5C685.7 13.7 728.3 19.3 771.2 21.7C814 24 857 23 878.5 22.5L900 22L900 0L878.5 0C857 0 814 0 771.2 0C728.3 0 685.7 0 642.8 0C600 0 557 0 514.2 0C471.3 0 428.7 0 385.8 0C343 0 300 0 257.2 0C214.3 0 171.7 0 128.8 0C86 0 43 0 21.5 0L0 0Z" fill="#333F44" stroke-linecap="round" stroke-linejoin="miter"></path></svg>