<svg id="visual" viewBox="0 0 900 600" width="900" height="600" xmlns="http://www.w3.org/2000/svg" xmlns:xlink="http://www.w3.org/1999/xlink" version="1.1"><path d="M0 49L21.5 46.7C43 44.3 86 39.7 128.8 43.3C171.7 47 214.3 59 257.2 56.7C300 54.3 343 37.7 385.8 29.8C428.7 22 471.3 23 514.2 37C557 51 600 78 642.8 77.7C685.7 77.3 728.3 49.7 771.2 40C814 30.3 857 38.7 878.5 42.8L900 47L900 0L878.5 0C857 0 814 0 771.2 0C728.3 0 685.7 0 642.8 0C600 0 557 0 514.2 0C471.3 0 428.7 0 385.8 0C343 0 300 0 257.2 0C214.3 0 171.7 0 128.8 0C86 0 43 0 21.5 0L0 0Z" fill="#1A1A1B" stroke-linecap="round" stroke-linejoin="miter"></path></svg>